<?xml version="1.0" encoding="UTF-8"?>
<svg version="1.1" xmlns="http://www.w3.org/2000/svg" width="512" height="512">
<path d="M0 0 C1.0603949 -0.00626404 2.12078979 -0.01252808 3.21331787 -0.01898193 C42.97911235 -0.16753121 93.08816313 4.89282641 123.9375 33 C124.659375 33.804375 125.38125 34.60875 126.125 35.4375 C126.970625 36.365625 127.81625 37.29375 128.6875 38.25 C133.14652496 43.67960137 136.25295785 50.10014718 136.24525452 57.16410828 C136.24731651 58.62173584 136.24731651 58.62173584 136.24942017 60.10881042 C136.24582489 61.17335953 136.24222961 62.23790863 136.23852539 63.3347168 C136.23867142 64.45681549 136.23881744 65.57891418 136.2389679 66.73501587 C136.23826998 70.45226968 136.23048317 74.16947367 136.22265625 77.88671875 C136.22079164 80.4607592 136.21936794 83.03480001 136.21836853 85.60884094 C136.21493757 91.69675528 136.20705218 97.78464899 136.19701904 103.87255555 C136.18584421 110.80356694 136.180344 117.73457917 136.17532361 124.66559732 C136.16486921 138.92290785 136.1472783 153.18020329 136.125 167.4375 C136.89798809 167.08960277 136.89798809 167.08960277 137.6865921 166.73467731 C140.04581345 165.67455652 142.40667467 164.61813668 144.76757812 163.56176758 C145.57817688 163.1968647 146.38877563 162.83196182 147.22393799 162.45600128 C152.92327504 159.91015638 158.58278048 157.72406335 164.625 156.125 C165.50986084 155.88700684 166.39472168 155.64901367 167.30639648 155.40380859 C169.90697408 154.72292161 172.51355324 154.07523299 175.125 153.4375 C175.81867676 153.25815918 176.51235352 153.07881836 177.22705078 152.89404297 C206.15302443 145.65356187 239.3907302 149.61872256 267.125 159.4375 C268.20523437 159.80488281 269.28546875 160.17226562 270.3984375 160.55078125 C309.81875066 174.71289376 341.36808419 205.50166479 360.125 242.4375 C360.62515625 243.40945313 361.1253125 244.38140625 361.640625 245.3828125 C370.39952014 263.51039928 376.13936946 285.07253033 376.36328125 305.22265625 C376.37302979 305.95256271 376.38277832 306.68246918 376.39282227 307.43449402 C376.63044782 329.84807845 374.64841119 350.18675701 367.125 371.4375 C366.75761719 372.51773437 366.39023437 373.59796875 366.01171875 374.7109375 C351.84960624 414.13125066 321.06083521 445.68058419 284.125 464.4375 C283.15304687 464.93765625 282.18109375 465.4378125 281.1796875 465.953125 C249.65783936 481.18386508 209.20035018 485.79305513 175.125 477.4375 C173.87904053 477.13948486 173.87904053 477.13948486 172.60791016 476.83544922 C155.80628473 472.70390198 137.65116751 466.53682156 123.50170898 456.25830078 C121.51476373 454.82935375 121.51476373 454.82935375 118.125 453.4375 C114.72143949 454.48606621 114.72143949 454.48606621 111.5625 456.8125 C110.32248042 457.59536723 109.07889422 458.37261002 107.83203125 459.14453125 C107.20893066 459.53721191 106.58583008 459.92989258 105.94384766 460.33447266 C87.34125717 471.61588256 63.37487239 475.72547823 42.125 478.4375 C41.1486409 478.56620483 41.1486409 478.56620483 40.15255737 478.69750977 C26.37275354 480.47644004 12.69594496 480.83734539 -1.1875 480.8125 C-2.28284058 480.81228851 -3.37818115 480.81207703 -4.50671387 480.81185913 C-22.27844905 480.77771632 -39.38997936 479.83224933 -56.875 476.4375 C-57.89352051 476.24494629 -58.91204102 476.05239258 -59.96142578 475.85400391 C-83.83043205 471.22108668 -115.33206092 462.79458349 -129.875 441.4375 C-134.02036969 434.7890519 -135.99678297 429.9959496 -136.00922108 422.10111046 C-136.01367892 420.78955652 -136.01813676 419.47800257 -136.02272969 418.12670457 C-136.0226404 416.66758942 -136.02245055 415.20847426 -136.02217102 413.74935913 C-136.0254704 412.20210796 -136.02919613 410.65485765 -136.0333125 409.10760844 C-136.04333214 404.84895891 -136.04704924 400.59032349 -136.04970181 396.33166385 C-136.05360496 391.74117353 -136.06318328 387.15069437 -136.07191467 382.56021118 C-136.09167859 371.47089457 -136.10174512 360.38157705 -136.11064246 349.29224724 C-136.11502541 344.07047811 -136.12039219 338.84871 -136.12563133 333.62694168 C-136.1426434 316.26934965 -136.15713775 298.91175825 -136.16438007 281.55415916 C-136.16628998 277.04961522 -136.16821031 272.54507127 -136.17016602 268.04052734 C-136.17064976 266.9209413 -136.1711335 265.80135526 -136.1716319 264.64784236 C-136.17993287 246.5097475 -136.20527105 228.37171858 -136.23774669 210.23365252 C-136.27081445 191.61313193 -136.28882857 172.99264486 -136.29202431 154.37209475 C-136.29418965 143.91675708 -136.30294182 133.46151557 -136.32848549 123.00620651 C-136.35018857 114.10231215 -136.35824481 105.1985373 -136.34851871 96.29461949 C-136.34397291 91.75261174 -136.34587651 87.2108506 -136.36528015 82.66887665 C-136.38290461 78.50738792 -136.38192003 74.34632586 -136.36638286 70.18483265 C-136.3640057 68.6827602 -136.36833603 67.18065826 -136.38021151 65.67863087 C-136.48274018 51.84935546 -133.45622051 42.58624925 -123.875 32.4375 C-93.41859553 2.74523471 -39.76207343 0.10959738 0 0 Z M-48.875 34.4375 C-49.75961914 34.60910645 -50.64423828 34.78071289 -51.55566406 34.95751953 C-67.86752685 38.21814377 -85.125782 42.73049516 -98.875 52.4375 C-99.885625 53.0975 -100.89625 53.7575 -101.9375 54.4375 C-104.07379417 56.38064393 -104.07379417 56.38064393 -105 59.375 C-105.16026418 62.5492267 -105.16026418 62.5492267 -103 64.9375 C-101.98385755 65.80177334 -100.93863146 66.63239007 -99.875 67.4375 C-99.276875 67.91058594 -98.67875 68.38367188 -98.0625 68.87109375 C-91.30513701 73.79833759 -83.68082168 76.63646636 -75.875 79.4375 C-74.84632812 79.80875 -73.81765625 80.18 -72.7578125 80.5625 C-66.1510913 82.7590203 -59.44848957 84.2325083 -52.625 85.5625 C-51.41239502 85.80057373 -51.41239502 85.80057373 -50.17529297 86.04345703 C-33.79337672 89.08211557 -17.69635858 89.84260754 -1.0625 89.8125 C0.55632584 89.81218277 0.55632584 89.81218277 2.20785522 89.81185913 C19.18097636 89.77870758 35.47571199 88.97837665 52.125 85.4375 C53.05425293 85.24494629 53.98350586 85.05239258 54.94091797 84.85400391 C82.95029856 78.90358281 82.95029856 78.90358281 105.125 62.4375 C105.00350197 59.01305545 104.75092323 57.11735766 102.40234375 54.56640625 C81.48418041 40.56276101 56.70667917 35.61380699 32.125 32.4375 C31.14389 32.30757156 31.14389 32.30757156 30.14295959 32.17501831 C24.28141898 31.45248846 18.49214246 31.26235299 12.58984375 31.234375 C11.60156586 31.22736069 10.61328796 31.22034637 9.59506226 31.21311951 C6.41749486 31.19568192 3.24011351 31.18926619 0.0625 31.1875 C-1.01979889 31.18682526 -2.10209778 31.18615051 -3.2171936 31.18545532 C-18.62856576 31.20076099 -33.71228301 31.39367217 -48.875 34.4375 Z M-105.875 100.4375 C-105.9625127 103.66649426 -106.01556146 106.89518116 -106.0625 110.125 C-106.08763672 111.03701172 -106.11277344 111.94902344 -106.13867188 112.88867188 C-106.22201253 119.67086389 -106.22201253 119.67086389 -102.875 125.4375 C-89.67384005 137.44562781 -69.56948705 142.30386102 -52.4375 145.625 C-51.64077881 145.77984863 -50.84405762 145.93469727 -50.02319336 146.09423828 C-33.69057937 149.07737895 -17.63962135 149.84250485 -1.0625 149.8125 C0.55632584 149.81218277 0.55632584 149.81218277 2.20785522 149.81185913 C19.18097636 149.77870758 35.47571199 148.97837665 52.125 145.4375 C53.05425293 145.24494629 53.98350586 145.05239258 54.94091797 144.85400391 C70.1031941 141.62287616 86.13569526 137.15457494 99.125 128.4375 C99.85976562 127.95796875 100.59453125 127.4784375 101.3515625 126.984375 C104.41378512 124.37355572 105.91031415 122.19274189 106.40820312 118.12207031 C106.71776307 112.21645141 106.50833856 106.33501634 106.125 100.4375 C102.79213547 101.50821553 99.51362847 102.66034126 96.26171875 103.953125 C69.81790674 114.35271463 41.17686565 119.51749592 12.7734375 119.640625 C11.71629547 119.64632507 10.65915344 119.65202515 9.56997681 119.65789795 C7.33962992 119.66728767 5.10926953 119.67385773 2.87890625 119.67773438 C-0.44297354 119.68733518 -3.76420507 119.71837387 -7.0859375 119.75 C-26.91361936 119.84909241 -46.5394464 118.16964848 -65.875 113.625 C-67.55323853 113.24142334 -67.55323853 113.24142334 -69.26538086 112.85009766 C-78.40722684 110.69264046 -87.15289973 107.90297734 -95.875 104.4375 C-96.9475 104.01984375 -98.02 103.6021875 -99.125 103.171875 C-101.38442633 102.28065684 -103.63141343 101.36743975 -105.875 100.4375 Z M-105.875 160.4375 C-105.9625127 163.66649426 -106.01556146 166.89518116 -106.0625 170.125 C-106.08763672 171.03701172 -106.11277344 171.94902344 -106.13867188 172.88867188 C-106.22201253 179.67086389 -106.22201253 179.67086389 -102.875 185.4375 C-89.67384005 197.44562781 -69.56948705 202.30386102 -52.4375 205.625 C-51.64077881 205.77984863 -50.84405762 205.93469727 -50.02319336 206.09423828 C-33.69057937 209.07737895 -17.63962135 209.84250485 -1.0625 209.8125 C0.55632584 209.81218277 0.55632584 209.81218277 2.20785522 209.81185913 C19.18097636 209.77870758 35.47571199 208.97837665 52.125 205.4375 C53.05425293 205.24494629 53.98350586 205.05239258 54.94091797 204.85400391 C70.1031941 201.62287616 86.13569526 197.15457494 99.125 188.4375 C99.85976562 187.95796875 100.59453125 187.4784375 101.3515625 186.984375 C104.41378512 184.37355572 105.91031415 182.19274189 106.40820312 178.12207031 C106.71776307 172.21645141 106.50833856 166.33501634 106.125 160.4375 C102.79213547 161.50821553 99.51362847 162.66034126 96.26171875 163.953125 C69.81790674 174.35271463 41.17686565 179.51749592 12.7734375 179.640625 C11.71629547 179.64632507 10.65915344 179.65202515 9.56997681 179.65789795 C7.33962992 179.66728767 5.10926953 179.67385773 2.87890625 179.67773438 C-0.44297354 179.68733518 -3.76420507 179.71837387 -7.0859375 179.75 C-26.91361936 179.84909241 -46.5394464 178.16964848 -65.875 173.625 C-67.55323853 173.24142334 -67.55323853 173.24142334 -69.26538086 172.85009766 C-78.40722684 170.69264046 -87.15289973 167.90297734 -95.875 164.4375 C-96.9475 164.01984375 -98.02 163.6021875 -99.125 163.171875 C-101.38442633 162.28065684 -103.63141343 161.36743975 -105.875 160.4375 Z M116.5 220 C115.71625 220.804375 114.9325 221.60875 114.125 222.4375 C113.54492188 222.97246094 112.96484375 223.50742188 112.3671875 224.05859375 C106.24043219 229.83696493 101.69800221 236.42841249 97.125 243.4375 C96.32255859 244.62085938 96.32255859 244.62085938 95.50390625 245.828125 C76.74320711 274.90975076 72.44867005 311.65722245 79.39306641 345.04663086 C85.28071646 371.20103986 99.033364 393.83539313 118.125 412.4375 C118.65996094 413.01757812 119.19492188 413.59765625 119.74609375 414.1953125 C125.52446493 420.32206781 132.11591249 424.86449779 139.125 429.4375 C139.91390625 429.97246094 140.7028125 430.50742187 141.515625 431.05859375 C170.59725076 449.81929289 207.34472245 454.11382995 240.73413086 447.16943359 C266.88853986 441.28178354 289.52289313 427.529136 308.125 408.4375 C308.70507812 407.90253906 309.28515625 407.36757813 309.8828125 406.81640625 C316.00956781 401.03803507 320.55199779 394.44658751 325.125 387.4375 C325.65996094 386.64859375 326.19492187 385.8596875 326.74609375 385.046875 C345.50679289 355.96524924 349.80132995 319.21777755 342.85693359 285.82836914 C336.96928354 259.67396014 323.216636 237.03960687 304.125 218.4375 C303.59003906 217.85742188 303.05507813 217.27734375 302.50390625 216.6796875 C296.72553507 210.55293219 290.13408751 206.01050221 283.125 201.4375 C281.94164062 200.63505859 281.94164062 200.63505859 280.734375 199.81640625 C228.75248864 166.2826369 159.44155242 178.08086549 116.5 220 Z M-105.875 220.4375 C-105.9625127 223.66649426 -106.01556146 226.89518116 -106.0625 230.125 C-106.08763672 231.03701172 -106.11277344 231.94902344 -106.13867188 232.88867188 C-106.22201253 239.67086389 -106.22201253 239.67086389 -102.875 245.4375 C-89.67384005 257.44562781 -69.56948705 262.30386102 -52.4375 265.625 C-51.64077881 265.77984863 -50.84405762 265.93469727 -50.02319336 266.09423828 C-33.78008819 269.06103022 -17.85970183 269.80438796 -1.375 269.75 C0.20858307 269.74876129 0.20858307 269.74876129 1.82415771 269.74749756 C17.36785628 269.71949302 32.82397991 269.48895433 48.125 266.4375 C49.23359375 266.2725 50.3421875 266.1075 51.484375 265.9375 C55.81401669 263.47805857 56.66953421 259.35877814 58.25 254.8125 C58.89507908 253.04824757 59.54348383 251.28520736 60.1953125 249.5234375 C60.50758789 248.6684668 60.81986328 247.81349609 61.14160156 246.93261719 C62.09588178 244.51137989 63.17840368 242.22785195 64.3671875 239.9140625 C66.27540665 236.78931055 66.27540665 236.78931055 66.125 234.4375 C58.62719828 235.11387373 51.23104527 236.13513067 43.80078125 237.33203125 C33.45572879 238.94488195 23.13978615 239.59502338 12.67578125 239.640625 C11.62005417 239.64632507 10.56432709 239.65202515 9.47660828 239.65789795 C7.25223773 239.66727799 5.02785373 239.67385378 2.8034668 239.67773438 C-0.50954213 239.68734635 -3.82190405 239.71839956 -7.13476562 239.75 C-26.94516294 239.84920213 -46.55649641 238.16564103 -65.875 233.625 C-67.55323853 233.24142334 -67.55323853 233.24142334 -69.26538086 232.85009766 C-78.40722684 230.69264046 -87.15289973 227.90297734 -95.875 224.4375 C-96.9475 224.01984375 -98.02 223.6021875 -99.125 223.171875 C-101.38442633 222.28065684 -103.63141343 221.36743975 -105.875 220.4375 Z M-105.875 280.4375 C-105.9625127 283.66649426 -106.01556146 286.89518116 -106.0625 290.125 C-106.08763672 291.03701172 -106.11277344 291.94902344 -106.13867188 292.88867188 C-106.22201253 299.67086389 -106.22201253 299.67086389 -102.875 305.4375 C-89.67384005 317.44562781 -69.56948705 322.30386102 -52.4375 325.625 C-51.64077881 325.77984863 -50.84405762 325.93469727 -50.02319336 326.09423828 C-47.31269899 326.58930821 -44.59919573 327.02403551 -41.875 327.4375 C-40.68849854 327.61772705 -39.50199707 327.7979541 -38.27954102 327.98364258 C-26.82157048 329.58833934 -15.42250003 329.77719619 -3.8659668 329.75317383 C-0.70911819 329.75002159 2.44678241 329.77354284 5.60351562 329.79882812 C19.40144554 329.83951572 32.48556255 328.57447676 46.125 326.4375 C46.125 316.8675 46.125 307.2975 46.125 297.4375 C41.72414062 297.92283203 41.72414062 297.92283203 37.234375 298.41796875 C25.72059879 299.5715624 14.26159568 299.77614594 2.69726562 299.75317383 C-0.6084098 299.75001585 -3.91318419 299.77358544 -7.21875 299.79882812 C-26.98909336 299.85846897 -46.5963672 298.15626976 -65.875 293.625 C-67.55323853 293.24142334 -67.55323853 293.24142334 -69.26538086 292.85009766 C-78.40722684 290.69264046 -87.15289973 287.90297734 -95.875 284.4375 C-96.9475 284.01984375 -98.02 283.6021875 -99.125 283.171875 C-101.38442633 282.28065684 -103.63141343 281.36743975 -105.875 280.4375 Z M-105.875 340.4375 C-105.9625127 343.66649426 -106.01556146 346.89518116 -106.0625 350.125 C-106.08763672 351.03701172 -106.11277344 351.94902344 -106.13867188 352.88867188 C-106.22201253 359.67086389 -106.22201253 359.67086389 -102.875 365.4375 C-89.67384005 377.44562781 -69.56948705 382.30386102 -52.4375 385.625 C-51.64077881 385.77984863 -50.84405762 385.93469727 -50.02319336 386.09423828 C-33.96964922 389.02640703 -18.22965116 389.80656261 -1.9375 389.75 C-0.90507172 389.74884186 0.12735657 389.74768372 1.19107056 389.74649048 C21.45525417 389.70156055 40.36058849 388.37860288 60.125 383.4375 C57.155 374.8575 54.185 366.2775 51.125 357.4375 C48.876875 357.581875 46.62875 357.72625 44.3125 357.875 C43.04792969 357.95621094 41.78335938 358.03742188 40.48046875 358.12109375 C37.33751323 358.33328632 34.21002263 358.62860657 31.07592773 358.94458008 C25.22876687 359.47785096 19.42358679 359.61573854 13.5546875 359.640625 C11.93568039 359.64917511 11.93568039 359.64917511 10.28396606 359.65789795 C8.00654053 359.66728939 5.72910176 359.67385843 3.45166016 359.67773438 C0.0573579 359.68733772 -3.33631066 359.71837587 -6.73046875 359.75 C-26.68419248 359.84765591 -46.41503954 358.1988892 -65.875 353.625 C-67.55323853 353.24142334 -67.55323853 353.24142334 -69.26538086 352.85009766 C-78.40722684 350.69264046 -87.15289973 347.90297734 -95.875 344.4375 C-96.9475 344.01984375 -98.02 343.6021875 -99.125 343.171875 C-101.38442633 342.28065684 -103.63141343 341.36743975 -105.875 340.4375 Z M-105.875 400.4375 C-105.9625127 403.66649426 -106.01556146 406.89518116 -106.0625 410.125 C-106.08763672 411.03701172 -106.11277344 411.94902344 -106.13867188 412.88867188 C-106.22201253 419.67086389 -106.22201253 419.67086389 -102.875 425.4375 C-89.67384005 437.44562781 -69.56948705 442.30386102 -52.4375 445.625 C-51.64077881 445.77984863 -50.84405762 445.93469727 -50.02319336 446.09423828 C-33.76024191 449.06465513 -17.81773403 449.80861747 -1.3125 449.75 C0.28197464 449.74726578 0.28197464 449.74726578 1.90866089 449.74447632 C17.19165143 449.70030375 32.07692858 449.33201734 47.125 446.4375 C48.06375977 446.27121094 49.00251953 446.10492188 49.96972656 445.93359375 C73.1849 442.33007234 73.1849 442.33007234 93.125 431.4375 C92.72410156 430.98761719 92.32320312 430.53773438 91.91015625 430.07421875 C87.4711335 425.05137895 83.22783045 419.89663552 79.04296875 414.66015625 C77.31916673 412.37416852 77.31916673 412.37416852 75.125 411.4375 C72.91542737 411.72064977 72.91542737 411.72064977 70.375 412.328125 C69.38967285 412.54186768 68.4043457 412.75561035 67.38916016 412.97583008 C65.77340088 413.32810669 65.77340088 413.32810669 64.125 413.6875 C42.1213182 418.17725055 20.98649152 419.72533645 -1.4375 419.8125 C-2.5067572 419.82044586 -3.5760144 419.82839172 -4.67767334 419.83657837 C-25.29915224 419.95413878 -45.75832121 418.35324496 -65.875 413.625 C-67.55323853 413.24142334 -67.55323853 413.24142334 -69.26538086 412.85009766 C-78.40722684 410.69264046 -87.15289973 407.90297734 -95.875 404.4375 C-96.9475 404.01984375 -98.02 403.6021875 -99.125 403.171875 C-101.38442633 402.28065684 -103.63141343 401.36743975 -105.875 400.4375 Z " fill="#000000" transform="translate(135.875,15.5625)"/>
<path d="M0 0 C4.57511951 2.16716188 6.94129305 4.40932013 9 9 C9.36245433 12.61227562 9.2824631 16.18685763 9.1875 19.8125 C9.16719727 21.28106445 9.16719727 21.28106445 9.14648438 22.77929688 C9.11125312 25.18676625 9.06199265 27.59309564 9 30 C9.69971924 29.97905273 10.39943848 29.95810547 11.12036133 29.93652344 C14.35092264 29.85237066 17.58125226 29.80102929 20.8125 29.75 C21.91271484 29.71648437 23.01292969 29.68296875 24.14648438 29.6484375 C36.91681072 29.49775518 46.43453571 33.59488752 56 42 C60.72218208 47.02005628 64.39461222 52.61618255 67 59 C67.35578125 59.87140625 67.7115625 60.7428125 68.078125 61.640625 C71.32986127 73.49017241 70.03677128 87.30856034 64 98 C62.92685547 99.33804688 62.92685547 99.33804688 61.83203125 100.703125 C59.77281156 102.81192793 59.77281156 102.81192793 59.9375 105.3125 C61.1472045 108.37234079 62.75012593 110.86827585 64.6484375 113.546875 C68.43185732 120.41389132 69.53337174 127.11013794 69.4375 134.875 C69.42847656 135.75341553 69.41945313 136.63183105 69.41015625 137.53686523 C69.09222065 149.4693859 64.87368422 158.03932928 57 167 C49.08216404 174.44801673 39.03766235 180.30966662 27.9453125 180.1953125 C26.83671875 180.18886719 25.728125 180.18242187 24.5859375 180.17578125 C22.87277344 180.15064453 22.87277344 180.15064453 21.125 180.125 C19.9596875 180.11597656 18.794375 180.10695313 17.59375 180.09765625 C14.72895423 180.07417432 11.86458465 180.04133141 9 180 C9.0314209 180.90709717 9.0314209 180.90709717 9.06347656 181.83251953 C9.14708945 184.59650771 9.19880054 187.36022913 9.25 190.125 C9.28351563 191.07632813 9.31703125 192.02765625 9.3515625 193.0078125 C9.43267329 198.84778913 9.12496676 202.49620977 5 207 C-0.22259857 211.05630398 -5.65340142 210.77397544 -12 210 C-16.57511951 207.83283812 -18.94129305 205.59067987 -21 201 C-21.36245433 197.38772438 -21.2824631 193.81314237 -21.1875 190.1875 C-21.17396484 189.20845703 -21.16042969 188.22941406 -21.14648438 187.22070312 C-21.11125312 184.81323375 -21.06199265 182.40690436 -21 180 C-21.62560822 180.00888245 -22.25121643 180.01776489 -22.89578247 180.0269165 C-29.4170822 180.11552695 -35.93821041 180.1757913 -42.45996094 180.21972656 C-44.89264881 180.23982071 -47.32528851 180.26710088 -49.7578125 180.30175781 C-53.25793355 180.3503706 -56.75741502 180.37299139 -60.2578125 180.390625 C-61.34240753 180.41127014 -62.42700256 180.43191528 -63.54446411 180.45318604 C-69.69243777 180.45500599 -73.34357492 180.1533116 -78 176 C-82.05630398 170.77740143 -81.77397544 165.34659858 -81 159 C-78.60223857 153.93805921 -76.96308918 152.97785351 -72 150 C-65.07 150 -58.14 150 -51 150 C-51 120.3 -51 90.6 -51 60 C-57.93 60 -64.86 60 -72 60 C-79.13422347 55.24385102 -79.13422347 55.24385102 -81 51 C-81.82885269 45.45191396 -81.7240695 40.52859117 -79.3125 35.4375 C-75.34659597 31.25722278 -72.51694058 29.826282 -66.75073242 29.65942383 C-64.61891885 29.65989709 -62.48706722 29.67674433 -60.35546875 29.70703125 C-59.2305452 29.71127609 -58.10562164 29.71552094 -56.9466095 29.71989441 C-53.35999438 29.7366631 -49.77394479 29.77431312 -46.1875 29.8125 C-43.75326333 29.82754913 -41.31901784 29.84123713 -38.88476562 29.85351562 C-32.92298471 29.88656075 -26.96153277 29.93674272 -21 30 C-21.02094727 29.39526855 -21.04189453 28.79053711 -21.06347656 28.16748047 C-21.14708945 25.40349229 -21.19880054 22.63977087 -21.25 19.875 C-21.28351563 18.92367187 -21.31703125 17.97234375 -21.3515625 16.9921875 C-21.43530823 10.96249484 -21.01802399 7.58828263 -17 3 C-11.77740143 -1.05630398 -6.34659858 -0.77397544 0 0 Z M-21 60 C-21 69.9 -21 79.8 -21 90 C-14.71929747 90.04601247 -8.43918429 90.08580837 -2.15844727 90.10986328 C-0.02366143 90.11989563 2.11111074 90.13352464 4.24584961 90.15087891 C7.32148619 90.1752489 10.39694043 90.186511 13.47265625 90.1953125 C14.42084732 90.20563507 15.36903839 90.21595764 16.34596252 90.22659302 C23.00239854 90.22770978 28.58087776 90.09657261 33.8125 85.5625 C37.75078863 80.94907617 38.4454588 78.40981587 38.31640625 72.5078125 C37.84957983 68.80778087 36.4743642 66.74186303 34 64 C29.40523226 60.58337783 24.92794716 59.8706255 19.30151367 59.88647461 C18.40095749 59.88655014 17.50040131 59.88662567 16.57255554 59.88670349 C15.6140419 59.89186478 14.65552826 59.89702606 13.66796875 59.90234375 C12.67622147 59.9037587 11.68447418 59.90517365 10.66267395 59.90663147 C7.50425157 59.91221582 4.34590085 59.92476548 1.1875 59.9375 C-0.95768127 59.94251702 -3.10286365 59.94707958 -5.24804688 59.95117188 C-10.49874753 59.96132797 -15.74929384 59.98090652 -21 60 Z M-21 120 C-21 129.9 -21 139.8 -21 150 C-14.71929747 150.04601247 -8.43918429 150.08580837 -2.15844727 150.10986328 C-0.02366143 150.11989563 2.11111074 150.13352464 4.24584961 150.15087891 C7.32148619 150.1752489 10.39694043 150.186511 13.47265625 150.1953125 C14.42084732 150.20563507 15.36903839 150.21595764 16.34596252 150.22659302 C23.00239854 150.22770978 28.58087776 150.09657261 33.8125 145.5625 C37.75078863 140.94907617 38.4454588 138.40981587 38.31640625 132.5078125 C37.84957983 128.80778087 36.4743642 126.74186303 34 124 C29.40523226 120.58337783 24.92794716 119.8706255 19.30151367 119.88647461 C18.40095749 119.88655014 17.50040131 119.88662567 16.57255554 119.88670349 C15.6140419 119.89186478 14.65552826 119.89702606 13.66796875 119.90234375 C12.67622147 119.9037587 11.68447418 119.90517365 10.66267395 119.90663147 C7.50425157 119.91221582 4.34590085 119.92476548 1.1875 119.9375 C-0.95768127 119.94251702 -3.10286365 119.94707958 -5.24804688 119.95117188 C-10.49874753 119.96132797 -15.74929384 119.98090652 -21 120 Z " fill="#000000" transform="translate(353,226)"/>
</svg>
